<?xml version="1.0" encoding="iso-8859-1"?>
<!-- Generator: Adobe Illustrator 24.1.3, SVG Export Plug-In . SVG Version: 6.00 Build 0)  -->
<svg version="1.1" id="Layer_1" xmlns="http://www.w3.org/2000/svg" xmlns:xlink="http://www.w3.org/1999/xlink" x="0px" y="0px"
	 viewBox="0 0 383.201 383.285" style="enable-background:new 0 0 383.201 383.285;" xml:space="preserve">
<path d="M216.344,0c6.005,2.26,12.515,3.684,17.915,6.945c13.264,8.011,20.29,20.245,21.075,35.821
	c0.237,4.714,0.037,9.451,0.037,14.592c42.709,0,85.047,0,127.647,0c0,4.448,0,8.483,0,12.858c-23.203,0-46.354,0-69.777,0
	c0,4.358,0,8.389,0,12.823c16.84,0,33.613,0,50.607,0c0,4.336,0,8.278,0,12.6c-16.748,0-33.525,0-50.591,0c0,4.396,0,8.428,0,12.853
	c10.412,0,20.824,0,31.487,0c0,4.316,0,8.25,0,12.601c-10.316,0-20.722,0-31.777,0c0,1.708,0,3.01,0,4.313
	c0,16.846,0.095,33.693-0.046,50.538c-0.057,6.811-0.63,13.617-0.998,21.02c6.908,1.808,14.696,3.868,22.495,5.883
	c13.868,3.583,27.743,7.137,41.613,10.712c0.964,0.248,1.939,0.493,2.859,0.864c2.673,1.078,4.315,3.047,4.314,5.971
	c-0.001,2.906-1.519,5.013-4.285,5.952c-2.589,0.878-5.259,1.514-8.386,2.396c0,1.074,0,2.277,0,3.48
	c0,29.699-0.024,59.398,0.057,89.097c0.005,1.9,0.52,3.947,1.336,5.671c3.146,6.642,6.447,13.213,9.822,19.743
	c1.622,3.139,1.673,6.061,0.045,9.225c-3.876,7.533-7.611,15.138-11.376,22.728c-1.305,2.63-3.138,4.58-6.253,4.598
	c-3.107,0.018-4.99-1.859-6.304-4.51c-3.817-7.704-7.631-15.409-11.536-23.069c-1.483-2.908-1.633-5.694-0.011-8.549
	c0.246-0.432,0.391-0.927,0.665-1.338c9.282-13.905,11.802-29.139,11.036-45.749c-0.976-21.169-0.237-42.417-0.237-63.63
	c0-1.359,0-2.718,0-4.467c-11.068,2.857-21.782,5.615-32.491,8.39c-9.284,2.405-18.527,4.982-27.865,7.156
	c-2.994,0.697-3.613,2.039-3.604,4.844c0.094,27.577,0.059,55.155,0.055,82.733c-0.001,7.348-0.775,8.395-7.77,10.727
	c-29.771,9.927-59.55,19.829-89.296,29.827c-3.474,1.168-6.677,1.233-10.176,0.054c-29.386-9.893-58.802-19.698-88.237-29.445
	c-2.198-0.728-4.608-1.109-6.925-1.133c-11.09-0.115-22.182-0.052-33.591-0.052c0-4.222,0-8.245,0-12.674
	c10.251,0,20.539,0,31.178,0c0-4.393,0-8.398,0-12.864c-16.804,0-33.574,0-50.563,0c0-4.375,0-8.3,0-12.719c16.84,0,33.6,0,50.637,0
	c0-4.406,0-8.329,0-12.763c-23.124,0-46.247,0-69.642,0c0-4.419,0-8.343,0-12.78c23.109,0,46.218,0,69.925,0
	c0-3.435,0-6.374,0-9.313c0-6.614-0.115-13.23,0.055-19.84c0.069-2.696-0.704-3.847-3.478-4.55
	c-25.957-6.58-51.86-13.37-77.797-20.026c-3.352-0.86-6.425-1.917-8.189-5.176c0-1.248,0-2.496,0-3.744
	c1.525-3.048,4.201-4.332,7.364-5.133c15.815-4.004,31.611-8.086,47.407-12.165c5.841-1.508,11.666-3.083,16.948-4.482
	c-0.506-5.276-1.332-9.964-1.345-14.654c-0.105-38.43-0.061-76.86-0.058-115.291c0.001-7.519,1.778-9.331,9.168-9.334
	c14.721-0.007,29.442,0.003,44.162-0.011c1.309-0.001,2.618-0.12,4.265-0.2c0-5.152-0.193-9.889,0.035-14.604
	c0.748-15.435,7.688-27.602,20.762-35.613c5.478-3.357,12.117-4.816,18.229-7.138C183.405,0,199.874,0,216.344,0z M102.611,251.964
	c-0.168,1.178-0.359,1.896-0.36,2.615c-0.017,25.569,0.035,51.138-0.09,76.707c-0.014,2.785,1.546,3.272,3.488,3.918
	c27.752,9.238,55.487,18.524,83.271,27.665c1.715,0.564,3.949,0.493,5.68-0.077c27.663-9.109,55.27-18.388,82.934-27.492
	c2.736-0.9,3.594-2.165,3.581-5.014c-0.114-24.695-0.062-49.392-0.075-74.088c-0.001-1.296-0.135-2.591-0.224-4.189
	c-1.583,0.366-2.666,0.591-3.736,0.867c-26.88,6.94-53.745,13.94-80.659,20.746c-2.766,0.699-5.989,0.902-8.721,0.219
	c-21.617-5.405-43.166-11.087-64.739-16.672C116.252,255.432,109.531,253.732,102.611,251.964z M83.071,121.181
	c0,21.415-0.018,41.862,0.006,62.31c0.015,12.966,7.995,20.921,21.046,20.925c58.358,0.019,116.717,0.019,175.075,0
	c13.024-0.004,20.989-7.977,21.005-20.962c0.023-19.456,0.009-38.912-0.001-58.368c-0.001-1.05-0.116-2.101-0.215-3.768
	c-7.714,5.903-16.331,6.649-25.277,6.651c0,6.026,0.035,11.621-0.01,17.216c-0.046,5.783-2.402,8.159-8.216,8.205
	c-7.232,0.057-14.465,0.045-21.697,0.004c-6.131-0.035-8.331-2.239-8.371-8.346c-0.037-5.581-0.008-11.162-0.008-16.959
	c-29.999,0-59.587,0-89.56,0c0,5.825,0.027,11.409-0.007,16.991c-0.038,6.1-2.225,8.279-8.387,8.314
	c-6.983,0.04-13.966,0.026-20.949,0.005c-6.76-0.02-8.917-2.202-8.934-9c-0.013-5.447-0.003-10.893-0.003-16.55
	C99.379,128.108,90.95,127.069,83.071,121.181z M166.134,114.847c0-5.849-0.019-11.431,0.005-17.012
	c0.027-6.178,2.112-8.356,8.296-8.39c11.471-0.063,22.942-0.063,34.413,0c6.175,0.034,8.266,2.222,8.292,8.398
	c0.024,5.58,0.005,11.161,0.005,16.659c0.704,0.248,1.048,0.475,1.392,0.475c20.946,0.012,41.896,0.277,62.835-0.115
	c10.095-0.189,17.75-6.955,18.467-16.256c0.713-9.257,0.156-18.611,0.156-28.091c-72.302,0-144.424,0-216.925,0
	c0,7.628-0.004,15.075,0.001,22.522c0.01,14.37,7.536,21.982,21.832,22.002c19.077,0.027,38.153,0.01,57.23-0.001
	C163.349,115.037,164.565,114.925,166.134,114.847z M32.285,220.34c1.876,0.608,2.689,0.919,3.525,1.135
	c50.991,13.193,101.98,26.397,152.996,39.493c1.93,0.496,4.227,0.335,6.187-0.168c42.095-10.793,84.167-21.674,126.241-32.549
	c9.585-2.478,19.159-4.999,29.273-7.64c-1.002-0.48-1.42-0.769-1.882-0.889c-14.462-3.756-28.918-7.536-43.414-11.157
	c-1.067-0.267-2.705,0.282-3.599,1.026c-6.439,5.363-13.864,7.604-22.136,7.601c-58.624-0.019-117.248-0.013-175.873-0.006
	c-5.965,0.001-12.322-0.375-16.691-4.322c-6.127-5.536-12.028-4.126-18.455-1.862c-0.233,0.082-0.49,0.092-0.731,0.155
	C56.293,214.117,44.86,217.081,32.285,220.34z M242.373,57.381c0-5.922,0.443-11.443-0.087-16.869
	c-1.34-13.742-13.086-26.068-26.849-27.034c-13.778-0.967-27.657-0.823-41.486-0.661c-24.542,0.289-37.106,19.737-32.722,44.507
	c3.928,0,7.857,0,12.147,0c0-3.947-0.032-7.662,0.006-11.376c0.126-12.389,7.994-20.328,20.393-20.419
	c11.848-0.087,23.698-0.073,35.546-0.004c12.631,0.074,20.475,7.979,20.579,20.613c0.03,3.696,0.005,7.393,0.005,11.243
	C234.336,57.381,238.266,57.381,242.373,57.381z M166.189,57.309c17.227,0,33.953,0,50.95,0c0-4.093,0.066-7.934-0.017-11.772
	c-0.098-4.528-2.347-7.139-6.818-7.196c-12.44-0.156-24.884-0.139-37.325-0.006c-4.055,0.043-6.559,2.392-6.741,6.079
	C166.029,48.617,166.189,52.838,166.189,57.309z M179.083,114.767c8.579,0,16.831,0,25.115,0c0-4.216,0-8.152,0-12.302
	c-8.436,0-16.679,0-25.115,0C179.083,106.613,179.083,110.549,179.083,114.767z M133.907,128.085c-4.368,0-8.304,0-12.263,0
	c0,4.272,0,8.287,0,12.279c4.256,0,8.189,0,12.263,0C133.907,136.179,133.907,132.242,133.907,128.085z M249.501,128.001
	c0,4.39,0,8.384,0,12.392c4.232,0,8.14,0,12.211,0c0-4.224,0-8.227,0-12.392C257.55,128.001,253.629,128.001,249.501,128.001z
	 M363.789,361.981c6.697-7.219,6.377-14.186,0.031-21.177c-1.556,3.104-3.157,6.171-4.614,9.304
	c-0.314,0.675-0.398,1.723-0.098,2.374C360.6,355.733,362.255,358.908,363.789,361.981z M223.926,191.488c4.216,0,8.136,0,12.256,0
	c0-4.198,0-8.212,0-12.396c-4.149,0-8.071,0-12.256,0C223.926,183.434,223.926,187.443,223.926,191.488z M261.646,179.19
	c-4.211,0-8.239,0-12.156,0c0,4.299,0,8.321,0,12.404c4.158,0,8.002,0,12.156,0C261.646,187.423,261.646,183.313,261.646,179.19z
	 M287.254,179.161c-4.235,0-8.261,0-12.27,0c0,4.274,0,8.303,0,12.339c4.216,0,8.155,0,12.27,0
	C287.254,187.12,287.254,183.178,287.254,179.161z"/>
</svg>
