<?xml version="1.0" encoding="iso-8859-1"?>
<!-- Generator: Adobe Illustrator 24.1.3, SVG Export Plug-In . SVG Version: 6.00 Build 0)  -->
<svg version="1.1" id="Layer_1" xmlns="http://www.w3.org/2000/svg" xmlns:xlink="http://www.w3.org/1999/xlink" x="0px" y="0px"
	 viewBox="0 0 371.345 372.222" style="enable-background:new 0 0 371.345 372.222;" xml:space="preserve">
<path d="M137.756,348.135c0,3.141,0.018,5.754-0.004,8.366c-0.051,6.154-2.707,10.874-8.09,13.804
	c-5.288,2.879-10.626,2.441-15.603-0.827c-9.594-6.299-19.039-12.83-28.701-19.02c-2.049-1.313-4.75-2.142-7.182-2.22
	c-8.35-0.268-16.714-0.102-25.073-0.103c-18.881-0.002-29.742-9.73-32.048-28.408c-5.417-43.887-10.932-87.762-16.406-131.642
	c-1.484-11.9-3.004-23.795-4.432-35.702c-2.074-17.292,10.953-32.175,28.44-32.283c20.834-0.129,41.669-0.034,62.504-0.035
	c1.366,0,2.731,0,4.383,0c0-3.932,0-7.725,0-12.004c-1.275,0-2.597,0-3.919,0c-12.226,0-24.453,0.031-36.679-0.01
	c-11.424-0.038-18.979-7.606-18.995-19.065c-0.033-23.254-0.031-46.508-0.002-69.762c0.015-11.689,7.528-19.18,19.241-19.189
	c31.065-0.022,62.13-0.021,93.195-0.001c11.893,0.008,19.278,7.495,19.316,19.504c0.029,9.126,0.033,18.252,0.06,27.378
	c0.001,0.227,0.141,0.453,0.289,0.901c27.671,0,55.407,0,83.503,0c0-5.608-0.017-11.075,0.003-16.543
	c0.069-18.298,12.86-31.168,31.064-31.242c7.485-0.03,14.972-0.059,22.456,0.008c17.255,0.155,30.245,13.135,30.299,30.485
	c0.09,28.38,0.025,56.76,0.026,85.14c0,1.342,0,2.684,0,4.095c4.412,0.297,8.548,0.188,12.533,0.912
	c14.962,2.716,25.032,16.241,23.193,31.398c-3.972,32.737-8.176,65.446-12.277,98.168c-3.029,24.17-5.921,48.357-9.108,72.506
	c-2.04,15.457-13.653,25.371-29.321,25.379c-59.259,0.029-118.519,0.012-177.778,0.012
	C141.168,348.135,139.691,348.135,137.756,348.135z M125.779,336.131c1.95,0,3.426,0,4.903,0c62.87,0,125.74,0.002,188.611-0.002
	c11.108-0.001,17.397-5.195,18.815-16.091c2.95-22.665,5.677-45.359,8.505-68.041c3.648-29.249,7.305-58.497,10.959-87.746
	c0.542-4.338,1.145-8.669,1.633-13.013c1.47-13.077-9.615-21.832-23.803-18.608c0,1.306,0,2.666,0,4.027
	c0,16.001,0.04,32.002-0.056,48.002c-0.011,1.786-0.468,3.726-1.257,5.327c-8.55,17.352-17.256,34.627-25.814,51.976
	c-3.394,6.88-8.678,10.243-16.388,10.177c-14.22-0.122-28.441-0.035-42.662-0.035c-1.18,0-2.361,0-3.446,0c0-4.309,0-8.012,0-12.052
	c10.608,0,21.007,0,31.838,0c-0.77-1.66-1.307-2.893-1.905-4.094c-7.562-15.191-15.174-30.356-22.646-45.592
	c-0.891-1.818-1.434-4.005-1.449-6.026c-0.116-16-0.064-32.001-0.064-48.002c0-1.33,0-2.66,0-4.125
	c-1.032-0.067-1.634-0.139-2.236-0.139c-73.598-0.004-147.196-0.031-220.794,0.032c-10.13,0.009-17.469,8.423-16.405,18.637
	c0.906,8.694,2.159,17.351,3.242,26.027c3.373,27.018,6.73,54.039,10.108,81.056c2.649,21.192,5.195,42.399,8.036,63.566
	c1.256,9.355,7.826,14.691,17.296,14.727c10.478,0.041,20.958-0.089,31.434,0.093c2.086,0.036,4.439,0.704,6.182,1.835
	c10.358,6.717,20.539,13.707,30.88,20.451c1.266,0.826,3.538,1.457,4.605,0.858c1.097-0.616,1.746-2.836,1.796-4.38
	C125.895,348.875,125.779,342.761,125.779,336.131z M101.816,12.032c-15.346,0-30.692-0.01-46.038,0.005
	c-5.868,0.006-7.85,1.99-7.853,7.877c-0.013,22.755-0.013,45.51,0,68.265c0.003,5.878,1.992,7.871,7.86,7.873
	c30.692,0.011,61.384,0.011,92.076,0c5.86-0.002,7.855-2.003,7.858-7.881c0.013-22.755,0.013-45.51,0-68.265
	c-0.003-5.873-1.998-7.863-7.866-7.869C132.508,12.022,117.162,12.032,101.816,12.032z M251.384,60.316c-28.03,0-55.76,0-83.433,0
	c-0.111,0.507-0.209,0.745-0.21,0.983c-0.018,9.248,0.001,18.497-0.045,27.745c-0.057,11.43-7.609,18.972-19.052,19.008
	c-12.222,0.038-24.445,0.009-36.668,0.009c-1.318,0-2.636,0-3.862,0c0,4.311,0,8.102,0,11.808c47.902,0,95.501,0,143.27,0
	C251.384,99.974,251.384,80.274,251.384,60.316z M323.368,59.921c0-10.732,0.301-21.086-0.091-31.415
	c-0.343-9.043-8.169-16.237-17.296-16.424c-8.341-0.171-16.692-0.179-25.032,0.002c-9.579,0.208-17.145,7.929-17.384,17.559
	c-0.127,5.114-0.031,10.234-0.033,15.351c-0.002,4.943,0,9.886,0,14.926C283.665,59.921,303.304,59.921,323.368,59.921z
	 M263.689,179.808c8.082,0,15.853,0,23.501,0c0-28.058,0-55.839,0-83.543c-7.983,0-15.666,0-23.501,0
	C263.689,124.167,263.689,151.86,263.689,179.808z M299.781,96.146c0,27.89,0,55.757,0,83.685c7.88,0,15.65,0,23.367,0
	c0-28.035,0-55.816,0-83.685C315.279,96.146,307.687,96.146,299.781,96.146z M267.443,192.204c0.625,1.4,0.992,2.312,1.428,3.188
	c6.73,13.503,13.404,27.035,20.29,40.458c0.853,1.663,2.842,3.788,4.31,3.791c1.466,0.003,3.47-2.114,4.322-3.774
	c6.885-13.419,13.559-26.948,20.281-40.451c0.48-0.964,0.831-1.992,1.334-3.212C302.011,192.204,284.966,192.204,267.443,192.204z
	 M263.705,83.795c20.035,0,39.772,0,59.418,0c0-4.054,0-7.845,0-11.553c-19.95,0-39.599,0-59.418,0
	C263.705,76.13,263.705,79.829,263.705,83.795z M203.638,198.483c15.745,5.447,23.951,15.684,23.947,29.62
	c-0.004,13.923-8.095,24.015-23.947,29.624c0,11.888,0.052,23.876-0.016,35.863c-0.056,9.945-7.117,17.758-16.537,18.483
	c-8.22,0.632-15.664-4.379-18.498-12.376c-0.399-1.127-0.851-2.473-1.719-3.159c-13.879-10.982-29.432-18.524-47.036-22.841
	c0,16.9,0,33.455,0,50.431c-9.156,0-17.971,0-26.785,0c-8.038,0-8.044,0.001-9.787-7.888c-3.365-15.229-6.723-30.459-10.111-45.813
	c-4.272-0.299-8.531-0.224-12.649-0.952c-14.18-2.505-24.307-14.534-24.524-28.944c-0.126-8.373-0.15-16.753,0.011-25.125
	c0.307-16.008,13.216-28.917,29.196-29.294c12.962-0.305,25.988,0.198,38.874-0.928c23.149-2.024,43.873-10.829,62.248-25.081
	c0.987-0.765,1.741-2.072,2.169-3.281c3.079-8.698,11.191-13.922,19.749-12.59c9.042,1.407,15.348,8.857,15.399,18.388
	C203.687,174.49,203.638,186.36,203.638,198.483z M95.966,256.943c12.868,2.773,25.26,4.899,37.333,8.199
	c12.24,3.346,23.378,9.511,34.101,16.613c0-35.988,0-71.472,0-107.392c-21.862,14.7-45.609,22.337-71.433,23.567
	C95.966,218.21,95.966,238.043,95.966,256.943z M191.661,228.476c0-21.254,0.001-42.509-0.003-63.763
	c0-1.124,0.11-2.277-0.094-3.368c-0.602-3.225-2.581-5.188-5.89-5.191c-3.308-0.003-5.294,1.952-5.896,5.181
	c-0.203,1.091-0.093,2.244-0.093,3.368c-0.003,42.259-0.003,84.517,0,126.776c0,1.125-0.11,2.277,0.091,3.368
	c0.596,3.23,2.582,5.188,5.887,5.192c3.307,0.004,5.291-1.959,5.898-5.182c0.205-1.09,0.096-2.243,0.096-3.368
	C191.662,270.485,191.661,249.48,191.661,228.476z M71.796,246.159c-7.617,0-14.893,0-22.657,0
	c2.83,6.933,7.596,10.996,14.335,11.658c6.63,0.651,13.374,0.142,20.13,0.142c0-20.057,0-39.85,0-59.815
	c-6.595,0-12.943-0.129-19.284,0.038c-5.672,0.149-14.003,5.458-14.621,12.06c7.332,0,14.636,0,21.889,0c0,4.13,0,7.921,0,11.98
	c-7.975,0-15.664,0-23.418,0c0,4.073,0,7.863,0,12.061c8.026,0,15.809,0,23.626,0C71.796,238.309,71.796,241.922,71.796,246.159z
	 M107.64,271.072c-7.365-0.397-14.681-0.791-22.36-1.205c3.237,14.582,6.284,28.307,9.338,42.064c4.487,0,8.669,0,13.023,0
	C107.64,298.412,107.64,285.084,107.64,271.072z M203.852,211.729c0,11.062,0,21.863,0,32.725
	c6.911-2.085,11.685-8.743,11.756-16.161C215.68,220.716,210.902,213.878,203.852,211.729z M245.869,264.37c0,4.059,0,7.85,0,11.548
	c27.939,0,55.572,0,83.374,0c0-3.891,0-7.591,0-11.548C301.213,264.37,273.492,264.37,245.869,264.37z M245.874,288.381
	c0,4.061,0,7.852,0,11.541c27.943,0,55.575,0,83.373,0c0-3.895,0-7.594,0-11.541C301.206,288.381,273.484,288.381,245.874,288.381z
	 M257.254,312.314c-3.977,0-7.663,0-11.467,0c0,3.973,0,7.753,0,11.672c3.906,0,7.59,0,11.467,0
	C257.254,319.826,257.254,316.043,257.254,312.314z M281.28,312.377c-3.996,0-7.768,0-11.473,0c0,4.041,0,7.824,0,11.564
	c3.973,0,7.659,0,11.473,0C281.28,319.972,281.28,316.192,281.28,312.377z M305.197,312.417c-4.04,0-7.816,0-11.525,0
	c0,3.989,0,7.682,0,11.54c3.874,0,7.559,0,11.525,0C305.197,319.888,305.197,316.109,305.197,312.417z M329.216,312.354
	c-3.973,0-7.744,0-11.518,0c0,4.015,0,7.797,0,11.609c3.949,0,7.633,0,11.518,0C329.216,319.839,329.216,316.146,329.216,312.354z
	 M71.882,53.903c0.001-4.751-0.093-9.505,0.02-14.253c0.272-11.487,11.531-18.921,21.955-14.145
	c10.077,4.617,20.012,9.591,29.75,14.888c10.958,5.961,11.013,21.256,0.082,27.243c-9.721,5.325-19.666,10.283-29.738,14.911
	c-10.595,4.868-21.846-2.654-22.056-14.391C71.81,63.407,71.881,58.654,71.882,53.903z M83.857,53.852
	c0,4.501-0.074,9.003,0.022,13.501c0.087,4.062,2.595,5.627,6.248,3.83c8.946-4.401,17.87-8.849,26.708-13.463
	c1.244-0.649,2.773-2.389,2.695-3.522c-0.094-1.371-1.479-3.169-2.789-3.857c-8.825-4.637-17.754-9.076-26.701-13.476
	c-3.698-1.819-6.083-0.289-6.164,3.861C83.79,45.1,83.856,49.476,83.857,53.852z"/>
</svg>
