<?xml version="1.0" encoding="iso-8859-1"?>
<!-- Generator: Adobe Illustrator 24.1.3, SVG Export Plug-In . SVG Version: 6.00 Build 0)  -->
<svg version="1.1" id="Layer_1" xmlns="http://www.w3.org/2000/svg" xmlns:xlink="http://www.w3.org/1999/xlink" x="0px" y="0px"
	 viewBox="0 0 382.861 383.152" style="enable-background:new 0 0 382.861 383.152;" xml:space="preserve">
<path d="M31.886,383.152c0-26.303,0-52.606,0-79.195c3.634,0,7.153,0,10.968,0c0,22.549,0,44.963,0,67.671
	c99.133,0,197.975,0,297.081,0c0-48.515,0-97.082,0-145.909c-98.923,0-197.764,0-296.975,0c0,22.246,0,44.273,0,66.531
	c-3.789,0-7.214,0-10.917,0c0-25.912,0-51.759,0-77.961c24.572,0,48.978,0,73.897,0c0-1.799,0-3.25,0-4.701
	c0.006-27.693-0.053-55.386,0.046-83.079c0.053-14.721,6.241-30.727,15.566-40.697c2.698,2.259,5.417,4.535,7.904,6.617
	c-2.873,5.212-6.312,9.927-8.156,15.2c-2.107,6.027-3.493,12.502-3.934,18.869c-0.644,9.298-0.165,18.673-0.165,27.475
	c5.027-0.26,9.832-0.71,14.638-0.724c25.073-0.073,50.147,0.03,75.22-0.057c16.739-0.058,29.588-10.498,32.602-26.265
	c0.324-1.692,0.419-3.428,0.647-5.376c3.538,0,6.968,0,10.901,0c0,10.39,0,20.777,0,31.174c5.235,0.552,9.991,1.054,15.125,1.595
	c-0.234,0.245,0.071,0.074,0.069-0.094c-0.131-13.428,1.673-26.974-1.723-40.22c-5.832-22.742-26.791-39.539-49.725-40.131
	c-0.734-0.019-1.468-0.002-2.419-0.002c-1.326,6.004-3.777,11.471-9.2,14.393c-3.592,1.936-7.87,3.382-11.906,3.559
	c-9.793,0.429-15.864-5.165-20.695-17.911c-12.247-0.207-23.037,4.055-32.94,11.336c-2.273-2.882-4.425-5.611-6.849-8.684
	c11.754-9.339,25.028-13.714,40.472-14.081c-0.565-1.712-0.602-3.423-1.474-4.214c-7.124-6.462-10.753-14.517-11.523-23.991
	c-0.018-0.218-0.244-0.419-0.498-0.832c-12.316,3.24-23.91,8.275-34.706,15.113c-25.21,15.968-42.887,38.017-53.204,66.022
	c-0.953,2.588-0.808,4.04,1.659,5.82c16.915,12.212,23.094,33.396,15.675,52.89c-7.137,18.754-26.215,30.487-46.576,28.646
	c-19.887-1.799-36.565-17.462-40.111-37.673c-5.379-30.658,22.912-58.003,53.389-51.606c1.335,0.28,2.671,0.562,4.296,0.904
	c0.41-0.971,0.855-1.945,1.238-2.943c17.598-45.764,49.942-75.336,97.229-88.432c2.547-0.705,4.176-1.718,5.52-4.223
	c6.311-11.76,16.334-18.076,29.708-17.964c13.211,0.111,23.006,6.499,29.252,18.136c1.044,1.946,2.036,3.287,4.406,3.936
	c47.616,13.032,80.131,42.75,97.755,88.824c0.306,0.8,0.655,1.584,1.056,2.549c17.186-4.11,32.294-0.619,44.836,11.571
	c-2.564,2.927-4.916,5.614-7.231,8.256c-8.629-6.839-12.711-8.876-18.478-9.413c-3.906,9.185,3.098,11.965,9.572,15.276
	c-2.045,3.321-3.899,6.331-5.953,9.665c-1.647-1.015-3.024-2.097-4.58-2.755c-1.424-0.601-3.033-0.921-4.579-0.998
	c-0.584-0.029-1.592,0.894-1.722,1.524c-0.121,0.586,0.5,1.691,1.089,1.992c2.211,1.13,4.515,2.094,6.833,2.995
	c5.897,2.292,9.596,6.407,9.798,12.831c0.201,6.395-2.704,11.38-8.514,14.222c-2.03,0.993-2.744,2.109-2.607,4.239
	c0.15,2.333,0.034,4.684,0.034,7.011c20.305-0.144,32.541-23.976,25.022-48.322c3.034-1.55,6.115-3.125,9.174-4.687
	c11.059,13.553,5.192,41.599-11.439,55.165c-19.189,15.652-47.391,12.773-63.327-6.45c-15.804-19.066-14.282-50.679,11.747-67.742
	c-15.461-42.861-44.863-70.995-88.848-84.576c-0.325,1.911-0.61,3.434-0.84,4.966c-1.134,7.557-4.65,13.827-10.044,19.185
	c-1.126,1.118-1.66,2.832-2.685,4.66c5.353,0.697,9.719,0.951,13.942,1.866c31.074,6.73,51.884,32.741,52.055,65.193
	c0.14,26.57,0.031,53.141,0.032,79.711c0,1.603,0,3.206,0,5.276c24.551,0,48.8,0,73.624,0c0,1.892,0,3.326,0,4.76
	c0,53.141-0.001,106.282,0.004,159.423c0,1.62,0.057,3.24,0.087,4.86C244.97,383.152,138.428,383.152,31.886,383.152z
	 M239.843,214.028c0-21.013,0-41.822,0-63.49c-11.296,12.084-25.136,14.329-40.096,13.997c-17.564-0.39-35.142-0.091-52.715-0.091
	c-1.323,0-2.647,0-3.986,0c0,16.846,0,33.196,0,49.585C175.469,214.028,207.576,214.028,239.843,214.028z M79.18,156.923
	c-0.007-18.796-15.327-34.104-33.997-33.97c-18.816,0.135-33.935,15.422-33.806,34.181c0.128,18.682,15.175,33.674,33.831,33.709
	C64.056,190.879,79.187,175.77,79.18,156.923z M331.772,123.78c-16.945,1.959-29.226,17.883-28.218,35.984
	c0.831,14.924,14.855,30.119,28.243,30.083c0-2.311-0.159-4.65,0.044-6.958c0.205-2.334-0.693-3.445-2.784-4.516
	c-2.825-1.447-5.298-3.578-8.19-5.603c2.55-3.12,4.79-5.861,7.187-8.793c1.517,1.215,2.63,2.553,4.052,3.141
	c2.217,0.916,4.666,1.843,6.973,1.742c1.299-0.057,2.962-1.977,3.559-3.429c0.282-0.686-1.318-2.661-2.481-3.32
	c-2.58-1.464-5.538-2.259-8.137-3.697c-8.711-4.82-9.7-15.172-2.23-21.797c0.782-0.694,1.837-1.621,1.893-2.496
	C331.903,130.702,331.772,127.261,331.772,123.78z M197.072,50.475c4.685,0.277,8.483,0.824,11.643-3.202
	c7.041-8.969,6.642-21.599-1.41-29.652c-7.971-7.973-20.502-8.686-29.295-1.668c-8.858,7.071-10.87,19.793-4.628,29.266
	c3.551,5.389,5.686,6.264,12.612,4.883c0-5.05,0-10.208,0-15.446c3.899,0,7.321,0,11.077,0
	C197.072,39.947,197.072,45.019,197.072,50.475z M251.509,213.945c5.161,0,9.948,0,14.729,0c0-7.905,0-15.519,0-22.755
	c-5.072,0.552-9.823,1.068-14.729,1.602C251.509,199.764,251.509,206.691,251.509,213.945z M201.059,62.178
	c-6.523,0-12.549,0-18.716,0c0,3.625-0.215,6.983,0.052,10.303c0.371,4.625,4.434,8.156,9.071,8.274
	c4.673,0.12,9.044-3.189,9.52-7.729C201.355,69.495,201.059,65.893,201.059,62.178z M117.471,191.326c0,7.462,0,15.093,0,22.71
	c4.748,0,9.184,0,13.733,0c0-7.304,0-14.409,0-21.305C126.47,192.247,122.06,191.796,117.471,191.326z M131.203,180.999
	c0-5.397,0-10.774,0-16.471c-4.59,0.009-9.353-1.172-12.554,3.516c-1.929,2.825-2.068,5.865-0.375,8.815
	C121.209,181.973,126.174,181.167,131.203,180.999z M251.648,180.958c5.202,0.178,10.073,1.097,13.137-3.929
	c1.879-3.083,1.721-6.219-0.342-9.1c-3.253-4.543-7.946-3.535-12.592-3.246c-0.081,1.128-0.191,1.98-0.194,2.832
	C251.638,171.858,251.648,176.202,251.648,180.958z M163.593,307.382c-0.01-15.502,12.669-28.204,28.058-28.108
	c15.261,0.095,27.844,12.696,27.917,27.956c0.074,15.384-12.655,28.062-28.147,28.034
	C176.081,335.237,163.603,322.735,163.593,307.382z M191.463,324.04c9.309,0.028,16.982-7.626,16.89-16.848
	c-0.091-9.074-7.679-16.643-16.745-16.703c-9.083-0.061-16.695,7.445-16.792,16.559C174.716,316.457,182.117,324.012,191.463,324.04
	z M162.179,189.815c3.712,0,7.234,0,10.851,0c0-3.734,0-7.248,0-10.864c-3.692,0-7.125,0-10.851,0
	C162.179,182.78,162.179,186.212,162.179,189.815z M217.763,178.992c-3.748,0-7.183,0-10.787,0c0,3.698,0,7.203,0,10.872
	c3.681,0,7.117,0,10.787,0C217.763,185.993,217.763,182.487,217.763,178.992z M50.563,168.164c0-11.322,0-22.338,0-33.379
	c-3.713,0-7.133,0-10.973,0c0,7.518,0,14.803,0,22.502c-4.575,0-8.741,0-13.11,0c0,3.857,0,7.289,0,10.878
	C34.833,168.164,42.736,168.164,50.563,168.164z"/>
</svg>
